<svg id="Layer_1" data-name="Layer 1" xmlns="http://www.w3.org/2000/svg" viewBox="0 0 413 413"><defs><style>.cls-1{fill:#2563eb;}.cls-2{stroke:#000;stroke-miterlimit:10;stroke-width:8px;}</style></defs><path d="M199,141C198,196.74,143.38,256.65,96,247c-25.79-5.25-50.52-30.59-54-54.15A35.24,35.24,0,0,1,42,182c5.14-31.44,55.53-36.9,55-62-.54-25.4-52.48-36.41-49.65-62a25.89,25.89,0,0,1,4.29-11h55.14c3.92,6.12,8.58,11.78,16.22,14,15.51,4.5,24.58-9.75,39-5,13.18,4.34,19.63,20.86,23,34C191.79,101.76,199.41,119.49,199,141Z" transform="translate(-38 -43)"/><path d="M430.06,441.38A31,31,0,0,1,426.38,452H279.31c15.15-44.27,57.63-82.32,96-75C405.19,382.74,434,415.35,430.06,441.38Z" transform="translate(-38 -43)"/><path d="M447,186.53A75.29,75.29,0,0,0,445,204s0,1.43,2,12V373.16c-7.27,3-16.75,3.93-29,1.84-50.22-8.57-35.84-106.19-113-170-3.72-3.08-6.9-5.47-9-7-3.83-1.87-38.31-19.5-46-60-8.22-43.28,21.58-73.62,24-76a181.58,181.58,0,0,1,27.54-15H429a161,161,0,0,1,18,11.34Z" transform="translate(-38 -43)"/><path d="M245,450c-1.91.7-3.81,1.36-5.72,2H118.47c-15.09-6.45-28.09-15.73-38.11-27.68C61.25,401.53,44.39,358.8,62,327c12.49-22.55,41.68-38.47,56-31,11.85,6.18,5.89,24.41,23,39,1,.89,16.62,13.81,33,10,17.14-4,30.64-25.23,30-52-2.85-25.67-2.08-50.91,11-58,22.42-12.15,82.27,28.39,95,81C321.22,362.36,295.31,415.87,245,450Z" transform="translate(-38 -43)"/><path class="cls-1" d="M169,324Z" transform="translate(-38 -43)"/><path class="cls-2" d="M42,192.85V182c5.14-31.44,55.53-36.9,55-62-.54-25.4-52.48-36.41-49.65-62a25.89,25.89,0,0,1,4.29-11h55.14c3.92,6.12,8.58,11.78,16.22,14,15.51,4.5,24.58-9.75,39-5,13.18,4.34,19.63,20.86,23,34,6.79,11.76,14.41,29.49,14,51C198,196.74,143.38,256.65,96,247,70.21,241.75,45.48,216.41,42,192.85Z" transform="translate(-38 -43)"/><path class="cls-2" d="M245,450c-1.91.7-3.81,1.36-5.72,2H118.47c-15.09-6.45-28.09-15.73-38.11-27.68C61.25,401.53,44.39,358.8,62,327c12.49-22.55,41.68-38.47,56-31,11.85,6.18,5.89,24.41,23,39,1,.89,16.62,13.81,33,10,17.14-4,30.64-25.23,30-52-2.85-25.67-2.08-50.91,11-58,22.42-12.15,82.27,28.39,95,81C321.22,362.36,295.31,415.87,245,450Z" transform="translate(-38 -43)"/><path class="cls-2" d="M430.06,441.38A31,31,0,0,1,426.38,452H279.31c15.15-44.27,57.63-82.32,96-75C405.19,382.74,434,415.35,430.06,441.38Z" transform="translate(-38 -43)"/><path class="cls-2" d="M447,186.53A75.29,75.29,0,0,0,445,204s0,1.43,2,12V373.16c-7.27,3-16.75,3.93-29,1.84-50.22-8.57-35.84-106.19-113-170-3.72-3.08-6.9-5.47-9-7-3.83-1.87-38.31-19.5-46-60-8.22-43.28,21.58-73.62,24-76a181.58,181.58,0,0,1,27.54-15H429a161,161,0,0,1,18,11.34Z" transform="translate(-38 -43)"/></svg>